<svg xmlns="http://www.w3.org/2000/svg" width="73.082" height="14.355" viewBox="0 0 73.082 14.355"><defs><style>.a{fill:#083147;}</style></defs><path class="a" d="M9.788,8H2.741v6.264H0V.3H2.741V5.585H9.788V.3h2.741V14.264H9.788Z" transform="translate(0 -0.104)"/><path class="a" d="M29.1,14.264,35.168.3h1.892l6.068,13.964H40.258L38.953,11.2H33.276l-1.305,3.067Zm5.22-5.481h3.589L36.147,4.672Z" transform="translate(-10.112 -0.104)"/><path class="a" d="M60.941,7.178a4.683,4.683,0,0,0,4.829,4.763A4.794,4.794,0,0,0,68.9,10.832v-3H65.247V5.481h6.395v6.2A7.445,7.445,0,0,1,65.7,14.355a7.157,7.157,0,0,1-7.5-7.178A7.14,7.14,0,0,1,65.639,0a7.243,7.243,0,0,1,5.155,2.023L69.032,3.85a4.815,4.815,0,0,0-3.458-1.436A4.68,4.68,0,0,0,60.941,7.178Z" transform="translate(-20.224)"/><path class="a" d="M96.773,0a7.084,7.084,0,0,1,7.373,7.178,7.376,7.376,0,0,1-14.747,0A7.084,7.084,0,0,1,96.773,0Zm0,12.006a4.639,4.639,0,0,0,4.633-4.763A4.639,4.639,0,0,0,96.773,2.48a4.584,4.584,0,0,0-4.633,4.7A4.655,4.655,0,0,0,96.773,12.006Z" transform="translate(-31.065)"/></svg>