<?xml version="1.0" encoding="utf-8"?>
<!-- Generator: Adobe Illustrator 25.4.1, SVG Export Plug-In . SVG Version: 6.00 Build 0)  -->
<svg version="1.1" id="Layer_1" xmlns="http://www.w3.org/2000/svg" xmlns:xlink="http://www.w3.org/1999/xlink" x="0px" y="0px"
	 viewBox="0 0 332.6 79.3" style="enable-background:new 0 0 332.6 79.3;" xml:space="preserve">
<style type="text/css">
	.st0{fill-rule:evenodd;clip-rule:evenodd;fill:#000100;}
	.st1{fill:#000100;}
</style>
<g id="Group-6" transform="translate(440.000000, 1788.000000)">
	<path class="st0" d="M-440-1776.3h14.6v58.8H-440V-1776.3z M-415.4-1729.2h14.6v-58.8h-14.6V-1729.2z M-391.1-1767.5v58.8h14.6
		v-58.8H-391.1z"/>
	<path class="st1" d="M-327.9-1756.4h4.6v26.1l-17.7-17.1v16.1h-4.6v-26.1l17.7,17.1V-1756.4z M-308.8-1736.8L-308.8-1736.8
		c-1.7,0-3,1.3-3,2.9c0,1.7,1.3,2.9,2.9,2.9h0.1c1.6,0,2.9-1.3,2.9-2.9C-305.9-1735.5-307.2-1736.8-308.8-1736.8z M-284.6-1745.3
		l-3.9-1.8c-1.4-0.7-2.4-1.4-2.4-2.8c0-1.9,1.6-2.9,3.7-2.9c2.5,0,5,1.4,7,3.3v-4.8c-1.4-1.3-3.9-2.5-6.8-2.5
		c-4.7,0-8.3,2.9-8.3,7.2c0,3.5,2.3,5.1,5,6.4l4.2,2c1.6,0.8,2.7,1.5,2.7,3.1c0,2.1-1.8,3.2-4.3,3.2c-2.9,0-5.6-1.5-7.8-3.3v4.8
		c1.7,1.3,4.5,2.5,7.7,2.5c5,0,8.9-2.9,8.9-7.6C-279-1741.9-280.9-1743.6-284.6-1745.3z M-270.4-1752.5h8.1v21.3h4.7v-21.3h8v-3.9
		h-20.8V-1752.5z M-231.8-1757.4l12.8,26.2h-4.9l-2.6-5.4h-10.7l-2.6,5.4h-4.9L-231.8-1757.4z M-228.1-1740.2l-3.7-7.8l-3.7,7.8
		H-228.1z M-213.9-1752.5h8.1v21.3h4.7v-21.3h8v-3.9h-20.8V-1752.5z M-182.5-1731.2h4.7v-25.2h-4.7V-1731.2z M-140.9-1743.8
		c0,7.2-5.7,13-12.9,13c-7.1,0-12.9-5.8-12.9-13c0-7.2,5.7-13,12.9-13C-146.7-1756.8-140.9-1751-140.9-1743.8z M-145.6-1743.8
		c0-5-3.7-8.7-8.2-8.7s-8.2,3.7-8.2,8.7s3.7,8.7,8.2,8.7S-145.6-1738.8-145.6-1743.8z M-112-1756.4v16.1l-17.7-17.1v26.1h4.6v-16.1
		l17.7,17.1v-26.1H-112z"/>
</g>
</svg>
